<svg xmlns="http://www.w3.org/2000/svg" viewBox="0 0 512 512">
  <rect width="512" height="512" rx="96" fill="#2D6A0A"/>
  <rect x="20" y="20" width="472" height="472" rx="80" fill="#1a3a05"/>
  <path d="M256 90 C170 90 106 158 106 256 C106 318 140 372 192 400 L192 308 C172 288 162 264 162 234 C162 186 204 148 256 148 C308 148 350 186 350 234 C350 264 340 288 320 308 L320 400 C372 372 406 318 406 256 C406 158 342 90 256 90Z" fill="#B8DC7A"/>
  <rect x="244" y="268" width="24" height="154" rx="12" fill="#B8DC7A"/>
</svg>
