<svg xmlns="http://www.w3.org/2000/svg" viewBox="0 0 192 192">
  <rect width="192" height="192" rx="38" fill="#2D6A0A"/>
  <rect x="8" y="8" width="176" height="176" rx="32" fill="#1a3a05"/>
  <!-- Leaf/plant icon -->
  <path d="M96 38 C65 38 42 62 42 96 C42 120 55 140 76 152 L76 118 C68 110 64 100 64 88 C64 70 78 56 96 56 C114 56 128 70 128 88 C128 100 124 110 116 118 L116 152 C137 140 150 120 150 96 C150 62 127 38 96 38Z" fill="#B8DC7A"/>
  <rect x="92" y="100" width="8" height="58" rx="4" fill="#B8DC7A"/>
</svg>
